  0
SECTION
  2
HEADER
  9
$ACADVER
  1
AC1014
  9
$HANDSEED
  5
FFFF
  9
$INSUNITS
 70
     4
  9
$MEASUREMENT
 70
     1
  0
ENDSEC
  0
SECTION
  2
TABLES
  0
TABLE
  2
VPORT
  5
8
330
0
100
AcDbSymbolTable
 70
     4
  0
VPORT
  5
2E
330
8
100
AcDbSymbolTableRecord
100
AcDbViewportTableRecord
  2
*ACTIVE
 70
     0
 10
0.0
 20
0.0
 11
1.0
 21
1.0
 12
210.0
 22
148.5
 13
0.0
 23
0.0
 14
10.0
 24
10.0
 15
10.0
 25
10.0
 16
0.0
 26
0.0
 36
1.0
 17
0.0
 27
0.0
 37
0.0
 40
341.0
 41
1.24
 42
50.0
 43
0.0
 44
0.0
 50
0.0
 51
0.0
 71
     0
 72
   100
 73
     1
 74
     3
 75
     0
 76
     0
 77
     0
 78
     0
  0
ENDTAB
  0
TABLE
  2
LTYPE
  5
5
330
0
100
AcDbSymbolTable
 70
     1
  0
LTYPE
  5
14
330
5
100
AcDbSymbolTableRecord
100
AcDbLinetypeTableRecord
  2
BYBLOCK
 70
     0
  3

 72
    65
 73
     0
 40
0.0
  0
LTYPE
  5
15
330
5
100
AcDbSymbolTableRecord
100
AcDbLinetypeTableRecord
  2
BYLAYER
 70
     0
  3

 72
    65
 73
     0
 40
0.0
  0
LTYPE
  5
16
330
5
100
AcDbSymbolTableRecord
100
AcDbLinetypeTableRecord
  2
CONTINUOUS
 70
     0
  3
Solid line
 72
    65
 73
     0
 40
0.0
  0
ENDTAB
  0
TABLE
  2
LAYER
  5
2
100
AcDbSymbolTable
 70
3
  0
LAYER
  5
50
100
AcDbSymbolTableRecord
100
AcDbLayerTableRecord
  2
0
 70
0
  6
CONTINUOUS
  0
LAYER
  5
51
100
AcDbSymbolTableRecord
100
AcDbLayerTableRecord
  2
Calque_1
 70
0
  6
CONTINUOUS
  0
LAYER
  5
52
100
AcDbSymbolTableRecord
100
AcDbLayerTableRecord
  2
Calque_2
 70
0
  6
CONTINUOUS
  0
ENDTAB
  0
TABLE
  2
STYLE
  5
3
330
0
100
AcDbSymbolTable
 70
     1
  0
STYLE
  5
11
330
3
100
AcDbSymbolTableRecord
100
AcDbTextStyleTableRecord
  2
STANDARD
 70
     0
 40
0.0
 41
1.0
 50
0.0
 71
     0
 42
2.5
  3
txt
  4

  0
ENDTAB
  0
TABLE
  2
VIEW
  5
6
330
0
100
AcDbSymbolTable
 70
     0
  0
ENDTAB
  0
TABLE
  2
UCS
  5
7
330
0
100
AcDbSymbolTable
 70
     0
  0
ENDTAB
  0
TABLE
  2
APPID
  5
9
330
0
100
AcDbSymbolTable
 70
     2
  0
APPID
  5
12
330
9
100
AcDbSymbolTableRecord
100
AcDbRegAppTableRecord
  2
ACAD
 70
     0
  0
ENDTAB
  0
TABLE
  2
DIMSTYLE
  5
A
330
0
100
AcDbSymbolTable
 70
     1
  0
DIMSTYLE
105
27
330
A
100
AcDbSymbolTableRecord
100
AcDbDimStyleTableRecord
  2
ISO-25
 70
     0
  3

  4

  5

  6

  7

 40
1.0
 41
2.5
 42
0.625
 43
3.75
 44
1.25
 45
0.0
 46
0.0
 47
0.0
 48
0.0
140
2.5
141
2.5
142
0.0
143
0.03937007874016
144
1.0
145
0.0
146
1.0
147
0.625
 71
     0
 72
     0
 73
     0
 74
     0
 75
     0
 76
     0
 77
     1
 78
     8
170
     0
171
     3
172
     1
173
     0
174
     0
175
     0
176
     0
177
     0
178
     0
270
     2
271
     2
272
     2
273
     2
274
     3
340
11
275
     0
280
     0
281
     0
282
     0
283
     0
284
     8
285
     0
286
     0
287
     3
288
     0
  0
ENDTAB
  0
TABLE
  2
BLOCK_RECORD
  5
1
330
0
100
AcDbSymbolTable
 70
     1
  0
BLOCK_RECORD
  5
1F
330
1
100
AcDbSymbolTableRecord
100
AcDbBlockTableRecord
  2
*MODEL_SPACE
  0
BLOCK_RECORD
  5
1B
330
1
100
AcDbSymbolTableRecord
100
AcDbBlockTableRecord
  2
*PAPER_SPACE
  0
ENDTAB
  0
ENDSEC
  0
SECTION
  2
BLOCKS
  0
BLOCK
  5
20
330
1F
100
AcDbEntity
  8
0
100
AcDbBlockBegin
  2
*MODEL_SPACE
 70
     0
 10
0.0
 20
0.0
 30
0.0
  3
*MODEL_SPACE
  1

  0
ENDBLK
  5
21
330
1F
100
AcDbEntity
  8
0
100
AcDbBlockEnd
  0
BLOCK
  5
1C
330
1B
100
AcDbEntity
 67
     1
  8
0
100
AcDbBlockBegin
  2
*PAPER_SPACE
  1

  0
ENDBLK
  5
1D
330
1B
100
AcDbEntity
 67
     1
  8
0
100
AcDbBlockEnd
  0
ENDSEC
  0
SECTION
  2
ENTITIES
  0
LINE
  5
100
100
AcDbEntity
  8
Calque_1
 62
7
100
AcDbLine
 10
7.261152
 20
0.168619
 30
0.0
 11
7.261168
 21
0.168614
 31
0.0
  0
SPLINE
  5
101
100
AcDbEntity
  8
Calque_1
 62
7
100
AcDbSpline
 70
0
 71
3
 72
25
 73
21
 74
19
 40
0.000000
 40
0.000000
 40
0.000000
 40
0.000000
 40
0.204789
 40
0.411850
 40
0.615174
 40
0.759404
 40
0.915541
 40
1.056540
 40
1.279192
 40
1.492896
 40
1.708144
 40
2.086377
 40
2.451173
 40
2.833338
 40
3.149861
 40
3.464884
 40
3.783917
 40
3.933634
 40
4.093326
 40
4.238877
 40
4.238877
 40
4.238877
 40
4.238877
 10
7.261168
 20
0.168614
 30
0.0
 10
7.199332
 20
0.198790
 30
0.0
 10
7.074974
 20
0.259478
 30
0.0
 10
6.933881
 20
0.413751
 30
0.0
 10
6.846340
 20
0.580223
 30
0.0
 10
6.821339
 20
0.747939
 30
0.0
 10
6.824674
 20
0.895605
 30
0.0
 10
6.861786
 20
1.066322
 30
0.0
 10
6.960450
 20
1.236178
 30
0.0
 10
7.121895
 20
1.386523
 30
0.0
 10
7.372286
 20
1.496433
 30
0.0
 10
7.710044
 20
1.490589
 30
0.0
 10
8.038759
 20
1.274353
 30
0.0
 10
8.200450
 20
0.936958
 30
0.0
 10
8.172070
 20
0.586849
 30
0.0
 10
7.999362
 20
0.308888
 30
0.0
 10
7.768109
 20
0.162333
 30
0.0
 10
7.559946
 20
0.129467
 30
0.0
 10
7.406858
 20
0.129756
 30
0.0
 10
7.308197
 20
0.156071
 30
0.0
 10
7.261152
 20
0.168619
 30
0.0
 11
7.261168
 21
0.168614
 31
0.0
 11
7.083052
 21
0.269675
 31
0.0
 11
6.940495
 21
0.419847
 31
0.0
 11
6.849883
 21
0.601864
 31
0.0
 11
6.825890
 21
0.744085
 31
0.0
 11
6.830026
 21
0.900167
 31
0.0
 11
6.861395
 21
1.037632
 31
0.0
 11
6.970713
 21
1.231600
 31
0.0
 11
7.128160
 21
1.376098
 31
0.0
 11
7.325027
 21
1.463134
 31
0.0
 11
7.703165
 21
1.454680
 31
0.0
 11
8.008725
 21
1.255408
 31
0.0
 11
8.172797
 21
0.910255
 31
0.0
 11
8.147647
 21
0.594732
 31
0.0
 11
7.982348
 21
0.326562
 31
0.0
 11
7.710295
 21
0.159919
 31
0.0
 11
7.562870
 21
0.133823
 31
0.0
 11
7.403209
 21
0.136915
 31
0.0
 11
7.261152
 21
0.168619
 31
0.0
  0
LINE
  5
102
100
AcDbEntity
  8
Calque_1
 62
7
100
AcDbLine
 10
4.571559
 20
2.419565
 30
0.0
 11
4.571559
 21
2.419567
 31
0.0
  0
SPLINE
  5
103
100
AcDbEntity
  8
Calque_1
 62
7
100
AcDbSpline
 70
0
 71
3
 72
25
 73
21
 74
19
 40
0.000000
 40
0.000000
 40
0.000000
 40
0.000000
 40
1.233907
 40
2.121265
 40
2.470017
 40
2.507198
 40
2.544174
 40
2.587496
 40
2.868383
 40
3.685289
 40
5.061712
 40
6.578599
 40
7.321092
 40
7.527853
 40
7.566163
 40
7.601423
 40
7.634668
 40
7.980252
 40
8.865370
 40
10.098427
 40
10.098427
 40
10.098427
 40
10.098427
 10
4.571559
 20
2.419567
 30
0.0
 10
4.204445
 20
2.615212
 30
0.0
 10
3.573322
 20
2.951553
 30
0.0
 10
2.955070
 20
3.453296
 30
0.0
 10
2.472709
 20
3.560427
 30
0.0
 10
2.427214
 20
3.704803
 30
0.0
 10
2.452301
 20
3.740883
 30
0.0
 10
2.573086
 20
3.777823
 30
0.0
 10
2.889576
 20
3.460646
 30
0.0
 10
3.624381
 20
3.176561
 30
0.0
 10
4.664584
 20
2.482275
 30
0.0
 10
5.799859
 20
1.933015
 30
0.0
 10
6.368302
 20
1.452431
 30
0.0
 10
6.775191
 20
1.336369
 30
0.0
 10
6.766487
 20
1.237281
 30
0.0
 10
6.745314
 20
1.205616
 30
0.0
 10
6.604749
 20
1.169150
 30
0.0
 10
6.268321
 20
1.542470
 30
0.0
 10
5.531322
 20
1.818219
 30
0.0
 10
4.924696
 20
2.198305
 30
0.0
 10
4.571559
 20
2.419565
 30
0.0
 11
4.571559
 21
2.419567
 31
0.0
 11
3.504107
 21
3.038495
 31
0.0
 11
2.738383
 21
3.486904
 31
0.0
 11
2.440163
 21
3.667715
 31
0.0
 11
2.433178
 21
3.704234
 31
0.0
 11
2.453004
 21
3.735446
 31
0.0
 11
2.493311
 21
3.751325
 31
0.0
 11
2.742321
 21
3.621359
 31
0.0
 11
3.453155
 21
3.218803
 31
0.0
 11
4.646083
 21
2.532171
 31
0.0
 11
5.958409
 21
1.771418
 31
0.0
 11
6.597205
 21
1.392953
 31
0.0
 11
6.767307
 21
1.275414
 31
0.0
 11
6.763057
 21
1.237341
 31
0.0
 11
6.742352
 21
1.208801
 31
0.0
 11
6.710988
 21
1.197774
 31
0.0
 11
6.408732
 21
1.365312
 31
0.0
 11
5.640117
 21
1.804250
 31
0.0
 11
4.571559
 21
2.419565
 31
0.0
  0
LINE
  5
104
100
AcDbEntity
  8
Calque_1
 62
7
100
AcDbLine
 10
8.247473
 20
1.219490
 30
0.0
 11
8.247450
 21
1.219491
 31
0.0
  0
SPLINE
  5
105
100
AcDbEntity
  8
Calque_1
 62
7
100
AcDbSpline
 70
0
 71
3
 72
22
 73
18
 74
16
 40
0.000000
 40
0.000000
 40
0.000000
 40
0.000000
 40
0.091714
 40
0.723933
 40
2.502886
 40
3.876728
 40
4.695001
 40
4.977207
 40
5.020453
 40
5.057432
 40
5.094602
 40
6.381608
 40
8.742844
 40
10.028464
 40
10.043722
 40
10.061056
 40
10.077790
 40
10.077790
 40
10.077790
 40
10.077790
 10
8.247450
 20
1.219491
 30
0.0
 10
8.257195
 20
1.248935
 30
0.0
 10
8.334112
 20
1.481348
 30
0.0
 10
9.261088
 20
1.747417
 30
0.0
 10
10.207976
 20
2.468439
 30
0.0
 10
11.383659
 20
3.170501
 30
0.0
 10
12.110205
 20
3.460036
 30
0.0
 10
12.428052
 20
3.777664
 30
0.0
 10
12.549066
 20
3.740880
 30
0.0
 10
12.574432
 20
3.704657
 30
0.0
 10
12.419037
 20
3.249627
 30
0.0
 10
10.966455
 20
2.964420
 30
0.0
 10
9.710738
 20
2.209785
 30
0.0
 10
8.712213
 20
1.136717
 30
0.0
 10
8.274611
 20
1.199934
 30
0.0
 10
8.259671
 20
1.207686
 30
0.0
 10
8.251491
 20
1.215602
 30
0.0
 10
8.247473
 20
1.219490
 30
0.0
 11
8.247450
 21
1.219491
 31
0.0
 11
8.279753
 21
1.305328
 31
0.0
 11
8.816455
 21
1.639470
 31
0.0
 11
10.355389
 21
2.531859
 31
0.0
 11
11.546052
 21
3.217253
 31
0.0
 11
12.258042
 21
3.620538
 31
0.0
 11
12.508161
 21
3.751232
 31
0.0
 11
12.548412
 21
3.735416
 31
0.0
 11
12.568300
 21
3.704241
 31
0.0
 11
12.561431
 21
3.667712
 31
0.0
 11
11.453253
 21
3.013246
 31
0.0
 11
9.409229
 21
1.831128
 31
0.0
 11
8.290485
 21
1.197700
 31
0.0
 11
8.275508
 21
1.200614
 31
0.0
 11
8.260043
 21
1.208443
 31
0.0
 11
8.247473
 21
1.219490
 31
0.0
  0
LINE
  5
106
100
AcDbEntity
  8
Calque_1
 62
7
100
AcDbLine
 10
7.457892
 20
1.687732
 30
0.0
 11
7.458108
 21
1.687732
 31
0.0
  0
SPLINE
  5
107
100
AcDbEntity
  8
Calque_1
 62
7
100
AcDbSpline
 70
0
 71
3
 72
25
 73
21
 74
19
 40
0.000000
 40
0.000000
 40
0.000000
 40
0.000000
 40
0.770083
 40
2.183123
 40
2.967125
 40
2.986171
 40
3.005548
 40
3.022997
 40
3.040434
 40
3.059799
 40
3.078864
 40
3.862869
 40
5.275908
 40
6.045992
 40
6.061555
 40
6.078226
 40
6.093214
 40
6.108202
 40
6.124871
 40
6.140439
 40
6.140439
 40
6.140439
 40
6.140439
 10
7.458108
 20
1.687732
 30
0.0
 10
7.446859
 20
1.945890
 30
0.0
 10
7.414968
 20
2.677748
 30
0.0
 10
7.556797
 20
3.622457
 30
0.0
 10
7.304814
 20
4.444926
 30
0.0
 10
7.466657
 20
4.670315
 30
0.0
 10
7.482660
 20
4.680466
 30
0.0
 10
7.500642
 20
4.685632
 30
0.0
 10
7.518622
 20
4.680470
 30
0.0
 10
7.534615
 20
4.670308
 30
0.0
 10
7.696592
 20
4.445184
 30
0.0
 10
7.475871
 20
3.606375
 30
0.0
 10
7.421683
 20
2.761192
 30
0.0
 10
7.742393
 20
1.845420
 30
0.0
 10
7.530699
 20
1.677675
 30
0.0
 10
7.516026
 20
1.671667
 30
0.0
 10
7.500536
 20
1.668403
 30
0.0
 10
7.485061
 20
1.671667
 30
0.0
 10
7.470337
 20
1.677646
 30
0.0
 10
7.461945
 20
1.684447
 30
0.0
 10
7.457892
 20
1.687732
 30
0.0
 11
7.458108
 21
1.687732
 31
0.0
 11
7.441313
 21
2.457632
 31
0.0
 11
7.440087
 21
3.870671
 31
0.0
 11
7.455488
 21
4.654522
 31
0.0
 11
7.467438
 21
4.669353
 31
0.0
 11
7.483670
 21
4.679935
 31
0.0
 11
7.500646
 21
4.683972
 31
0.0
 11
7.517610
 21
4.679937
 31
0.0
 11
7.533829
 21
4.669357
 31
0.0
 11
7.545804
 21
4.654522
 31
0.0
 11
7.561277
 21
3.870670
 31
0.0
 11
7.560051
 21
2.457631
 31
0.0
 11
7.543184
 21
1.687732
 31
0.0
 11
7.530639
 21
1.678522
 31
0.0
 11
7.515316
 21
1.671956
 31
0.0
 11
7.500538
 21
1.669452
 31
0.0
 11
7.485761
 21
1.671951
 31
0.0
 11
7.470437
 21
1.678513
 31
0.0
 11
7.457892
 21
1.687732
 31
0.0
  0
LINE
  5
108
100
AcDbEntity
  8
Calque_1
 62
7
100
AcDbLine
 10
1.589055
 20
3.482609
 30
0.0
 11
1.589055
 21
3.482609
 31
0.0
  0
SPLINE
  5
109
100
AcDbEntity
  8
Calque_1
 62
7
100
AcDbSpline
 70
0
 71
3
 72
19
 73
15
 74
13
 40
0.000000
 40
0.000000
 40
0.000000
 40
0.000000
 40
0.280776
 40
0.564671
 40
0.844474
 40
1.210383
 40
1.552388
 40
1.913365
 40
2.330856
 40
2.737001
 40
3.156354
 40
3.512669
 40
3.855153
 40
4.215552
 40
4.215552
 40
4.215552
 40
4.215552
 10
1.589055
 20
3.482609
 30
0.0
 10
1.498129
 20
3.509908
 30
0.0
 10
1.315266
 20
3.564808
 30
0.0
 10
1.113488
 20
3.778783
 30
0.0
 10
1.002469
 20
4.075572
 30
0.0
 10
1.044499
 20
4.419691
 30
0.0
 10
1.267894
 20
4.717351
 30
0.0
 10
1.630332
 20
4.866051
 30
0.0
 10
2.045108
 20
4.791884
 30
0.0
 10
2.351411
 20
4.474643
 30
0.0
 10
2.414351
 20
4.057830
 30
0.0
 10
2.253591
 20
3.705000
 30
0.0
 10
1.951770
 20
3.480623
 30
0.0
 10
1.711997
 20
3.481936
 30
0.0
 10
1.589055
 20
3.482609
 30
0.0
 11
1.589055
 21
3.482609
 31
0.0
 11
1.328130
 21
3.586306
 31
0.0
 11
1.129598
 21
3.789239
 31
0.0
 11
1.032392
 21
4.051614
 31
0.0
 11
1.076996
 21
4.414794
 31
0.0
 11
1.282976
 21
4.687814
 31
0.0
 11
1.616515
 21
4.825857
 31
0.0
 11
2.027133
 21
4.750412
 31
0.0
 11
2.309557
 21
4.458538
 31
0.0
 11
2.373038
 21
4.044018
 31
0.0
 11
2.225953
 21
3.719478
 31
0.0
 11
1.947500
 21
3.520080
 31
0.0
 11
1.589055
 21
3.482609
 31
0.0
  0
LINE
  5
10a
100
AcDbEntity
  8
Calque_1
 62
7
100
AcDbLine
 10
13.188424
 20
3.482817
 30
0.0
 11
13.188419
 21
3.482827
 31
0.0
  0
SPLINE
  5
10b
100
AcDbEntity
  8
Calque_1
 62
7
100
AcDbSpline
 70
0
 71
3
 72
28
 73
24
 74
22
 40
0.000000
 40
0.000000
 40
0.000000
 40
0.000000
 40
0.350715
 40
0.698126
 40
1.052365
 40
1.195884
 40
1.331528
 40
1.476303
 40
1.691388
 40
1.898771
 40
2.107189
 40
2.463249
 40
2.801378
 40
3.162558
 40
3.445334
 40
3.730298
 40
4.020278
 40
4.074669
 40
4.115385
 40
4.133639
 40
4.150043
 40
4.185553
 40
4.232478
 40
4.232478
 40
4.232478
 40
4.232478
 10
13.188419
 20
3.482827
 30
0.0
 10
13.074642
 20
3.519900
 30
0.0
 10
12.848160
 20
3.593697
 30
0.0
 10
12.636119
 20
3.902276
 30
0.0
 10
12.605792
 20
4.193887
 30
0.0
 10
12.659776
 20
4.399547
 30
0.0
 10
12.725287
 20
4.526174
 30
0.0
 10
12.832981
 20
4.652724
 30
0.0
 10
12.986050
 20
4.768309
 30
0.0
 10
13.189310
 20
4.836619
 30
0.0
 10
13.450094
 20
4.834370
 30
0.0
 10
13.741035
 20
4.711219
 30
0.0
 10
13.957777
 20
4.414466
 30
0.0
 10
13.997951
 20
4.073857
 30
0.0
 10
13.888878
 20
3.774303
 30
0.0
 10
13.679515
 20
3.566282
 30
0.0
 10
13.476705
 20
3.491027
 30
0.0
 10
13.349283
 20
3.474756
 30
0.0
 10
13.311898
 20
3.470514
 30
0.0
 10
13.286723
 20
3.467038
 30
0.0
 10
13.263716
 20
3.472374
 30
0.0
 10
13.231075
 20
3.476301
 30
0.0
 10
13.203895
 20
3.480453
 30
0.0
 10
13.188424
 20
3.482817
 30
0.0
 11
13.188419
 21
3.482827
 31
0.0
 11
12.868746
 21
3.627085
 31
0.0
 11
12.665982
 21
3.909186
 31
0.0
 11
12.628763
 21
4.261464
 31
0.0
 11
12.665561
 21
4.400186
 31
0.0
 11
12.727997
 21
4.520606
 31
0.0
 11
12.820758
 21
4.631760
 31
0.0
 11
12.993859
 21
4.759422
 31
0.0
 11
13.190599
 21
4.825006
 31
0.0
 11
13.399016
 21
4.824525
 31
0.0
 11
13.725454
 21
4.682338
 31
0.0
 11
13.926155
 21
4.410216
 31
0.0
 11
13.969085
 21
4.051597
 31
0.0
 11
13.871294
 21
3.786268
 31
0.0
 11
13.669699
 21
3.584864
 31
0.0
 11
13.398676
 21
3.481737
 31
0.0
 11
13.344792
 21
3.474328
 31
0.0
 11
13.304372
 21
3.469429
 31
0.0
 11
13.286164
 21
3.468127
 31
0.0
 11
13.269968
 21
3.470733
 31
0.0
 11
13.234853
 21
3.476010
 31
0.0
 11
13.188424
 21
3.482817
 31
0.0
  0
LINE
  5
10c
100
AcDbEntity
  8
Calque_1
 62
7
100
AcDbLine
 10
2.456258
 20
4.572310
 30
0.0
 11
2.456253
 21
4.572321
 31
0.0
  0
SPLINE
  5
10d
100
AcDbEntity
  8
Calque_1
 62
7
100
AcDbSpline
 70
0
 71
3
 72
28
 73
24
 74
22
 40
0.000000
 40
0.000000
 40
0.000000
 40
0.000000
 40
0.010896
 40
0.026786
 40
0.044797
 40
0.163568
 40
0.601901
 40
1.531498
 40
2.345973
 40
2.846800
 40
3.027343
 40
3.047969
 40
3.067113
 40
3.090775
 40
3.176916
 40
3.578876
 40
4.576684
 40
5.318876
 40
5.855061
 40
6.069243
 40
6.085826
 40
6.100711
 40
6.111255
 40
6.111255
 40
6.111255
 40
6.111255
 10
2.456253
 20
4.572321
 30
0.0
 10
2.454382
 20
4.575469
 30
0.0
 10
2.449783
 20
4.583208
 30
0.0
 10
2.447289
 20
4.598026
 30
0.0
 10
2.440706
 20
4.650381
 30
0.0
 10
2.670903
 20
4.736879
 30
0.0
 10
3.017756
 20
5.010387
 30
0.0
 10
3.697250
 20
5.350650
 30
0.0
 10
4.328399
 20
5.764306
 30
0.0
 10
4.772935
 20
5.938295
 30
0.0
 10
4.969612
 20
6.127893
 30
0.0
 10
5.043905
 20
6.107398
 30
0.0
 10
5.057587
 20
6.090298
 30
0.0
 10
5.070108
 20
6.045735
 30
0.0
 10
4.890043
 20
5.938131
 30
0.0
 10
4.515680
 20
5.702175
 30
0.0
 10
3.861618
 20
5.344004
 30
0.0
 10
3.217663
 20
4.939910
 30
0.0
 10
2.771992
 20
4.753604
 30
0.0
 10
2.562511
 20
4.556249
 30
0.0
 10
2.480470
 20
4.563187
 30
0.0
 10
2.466527
 20
4.565974
 30
0.0
 10
2.459268
 20
4.570453
 30
0.0
 10
2.456258
 20
4.572310
 30
0.0
 11
2.456253
 21
4.572321
 31
0.0
 11
2.451155
 21
4.581951
 31
0.0
 11
2.447500
 21
4.597414
 31
0.0
 11
2.446102
 21
4.615371
 31
0.0
 11
2.538767
 21
4.689667
 31
0.0
 11
2.914105
 21
4.916068
 31
0.0
 11
3.718128
 21
5.382647
 31
0.0
 11
4.424667
 21
5.787830
 31
0.0
 11
4.861854
 21
6.032154
 31
0.0
 11
5.023659
 21
6.112248
 31
0.0
 11
5.043105
 21
6.105371
 31
0.0
 11
5.055597
 21
6.090865
 31
0.0
 11
5.061752
 21
6.068017
 31
0.0
 11
5.002683
 21
6.005318
 31
0.0
 11
4.659633
 21
5.795821
 31
0.0
 11
3.796408
 21
5.295359
 31
0.0
 11
3.152623
 21
4.926049
 31
0.0
 11
2.685598
 21
4.662644
 31
0.0
 11
2.496445
 21
4.562170
 31
0.0
 11
2.479921
 21
4.563568
 31
0.0
 11
2.465491
 21
4.567219
 31
0.0
 11
2.456258
 21
4.572310
 31
0.0
  0
LINE
  5
10e
100
AcDbEntity
  8
Calque_1
 62
7
100
AcDbLine
 10
11.208019
 20
5.293085
 30
0.0
 11
11.207978
 21
5.293081
 31
0.0
  0
SPLINE
  5
10f
100
AcDbEntity
  8
Calque_1
 62
7
100
AcDbSpline
 70
0
 71
3
 72
25
 73
21
 74
19
 40
0.000000
 40
0.000000
 40
0.000000
 40
0.000000
 40
0.991324
 40
1.394017
 40
1.484176
 40
1.509732
 40
1.527792
 40
1.548878
 40
1.728808
 40
2.229112
 40
3.045446
 40
4.043076
 40
4.446986
 40
4.534105
 40
4.558308
 40
4.577420
 40
4.601081
 40
4.771314
 40
5.257939
 40
6.092389
 40
6.092389
 40
6.092389
 40
6.092389
 10
11.207978
 20
5.293081
 30
0.0
 10
10.914095
 20
5.460593
 30
0.0
 10
10.500832
 20
5.696151
 30
0.0
 10
10.112076
 20
5.936832
 30
0.0
 10
9.939848
 20
6.041909
 30
0.0
 10
9.944791
 20
6.089149
 30
0.0
 10
9.957270
 20
6.108300
 30
0.0
 10
10.033106
 20
6.125467
 30
0.0
 10
10.226568
 20
5.942049
 30
0.0
 10
10.673478
 20
5.761957
 30
0.0
 10
11.327304
 20
5.344263
 30
0.0
 10
12.003089
 20
4.977347
 30
0.0
 10
12.379911
 20
4.737644
 30
0.0
 10
12.560081
 20
4.631834
 30
0.0
 10
12.548772
 20
4.585849
 30
0.0
 10
12.532418
 20
4.569219
 30
0.0
 10
12.459111
 20
4.556568
 30
0.0
 10
12.268536
 20
4.722283
 30
0.0
 10
11.826990
 20
4.913391
 30
0.0
 10
11.447636
 20
5.146097
 30
0.0
 10
11.208019
 20
5.293085
 30
0.0
 11
11.207978
 21
5.293081
 31
0.0
 11
10.350665
 21
5.790813
 31
0.0
 11
10.007085
 21
6.000848
 31
0.0
 11
9.944319
 21
6.065572
 31
0.0
 11
9.947403
 21
6.090940
 31
0.0
 11
9.957964
 21
6.105591
 31
0.0
 11
9.977965
 21
6.112268
 31
0.0
 11
10.139275
 21
6.032557
 31
0.0
 11
10.576042
 21
5.788552
 31
0.0
 11
11.284233
 21
5.382514
 31
0.0
 11
12.147374
 21
4.882261
 31
0.0
 11
12.492181
 21
4.671901
 31
0.0
 11
12.552330
 21
4.608878
 31
0.0
 11
12.546201
 21
4.585464
 31
0.0
 11
12.532675
 21
4.571962
 31
0.0
 11
12.509740
 21
4.566148
 31
0.0
 11
12.356432
 21
4.640148
 31
0.0
 11
11.931573
 21
4.877422
 31
0.0
 11
11.208019
 21
5.293085
 31
0.0
  0
LINE
  5
110
100
AcDbEntity
  8
Calque_1
 62
7
100
AcDbLine
 10
7.366835
 20
4.864149
 30
0.0
 11
7.366835
 21
4.864149
 31
0.0
  0
SPLINE
  5
111
100
AcDbEntity
  8
Calque_1
 62
7
100
AcDbSpline
 70
0
 71
3
 72
19
 73
15
 74
13
 40
0.000000
 40
0.000000
 40
0.000000
 40
0.000000
 40
0.330926
 40
0.641501
 40
0.972673
 40
1.095354
 40
1.240097
 40
1.362774
 40
1.587487
 40
1.804893
 40
2.029064
 40
2.227249
 40
2.423419
 40
2.620695
 40
2.620695
 40
2.620695
 40
2.620695
 10
7.366835
 20
4.864149
 30
0.0
 10
7.268826
 20
4.926972
 30
0.0
 10
7.078834
 20
5.048756
 30
0.0
 10
7.058331
 20
5.413956
 30
0.0
 10
7.237729
 20
5.639119
 30
0.0
 10
7.435389
 20
5.685408
 30
0.0
 10
7.566020
 20
5.685238
 30
0.0
 10
7.728932
 20
5.647940
 30
0.0
 10
7.871238
 20
5.505588
 30
0.0
 10
7.941994
 20
5.287607
 30
0.0
 10
7.896283
 20
5.067232
 30
0.0
 10
7.755302
 20
4.908142
 30
0.0
 10
7.563952
 20
4.826445
 30
0.0
 10
7.432664
 20
4.851558
 30
0.0
 10
7.366835
 20
4.864149
 30
0.0
 11
7.366835
 21
4.864149
 31
0.0
 11
7.119767
 21
5.084307
 31
0.0
 11
7.097207
 21
5.394061
 31
0.0
 11
7.309742
 21
5.648038
 31
0.0
 11
7.428366
 21
5.679325
 31
0.0
 11
7.573109
 21
5.679325
 31
0.0
 11
7.691729
 21
5.648038
 31
0.0
 11
7.856431
 21
5.495167
 31
0.0
 11
7.922261
 21
5.287968
 31
0.0
 11
7.875808
 21
5.068662
 31
0.0
 11
7.745331
 21
4.919488
 31
0.0
 11
7.563306
 21
4.846347
 31
0.0
 11
7.366835
 21
4.864149
 31
0.0
  0
LINE
  5
112
100
AcDbEntity
  8
Calque_1
 62
7
100
AcDbLine
 10
1.722732
 20
9.991223
 30
0.0
 11
1.760982
 21
9.981623
 31
0.0
  0
LINE
  5
113
100
AcDbEntity
  8
Calque_1
 62
7
100
AcDbLine
 10
1.760982
 20
9.981623
 30
0.0
 11
1.760982
 21
7.501901
 31
0.0
  0
SPLINE
  5
114
100
AcDbEntity
  8
Calque_1
 62
7
100
AcDbSpline
 70
0
 71
3
 72
13
 73
9
 74
7
 40
0.000000
 40
0.000000
 40
0.000000
 40
0.000000
 40
0.228484
 40
0.998414
 40
2.480066
 40
4.323861
 40
4.931132
 40
5.003716
 40
5.003716
 40
5.003716
 40
5.003716
 10
1.657455
 20
5.021960
 30
0.0
 10
1.653362
 20
5.098059
 30
0.0
 10
1.635474
 20
5.430590
 30
0.0
 10
1.652235
 20
6.252958
 30
0.0
 10
1.576860
 20
7.659659
 30
0.0
 10
1.836112
 20
8.810747
 30
0.0
 10
1.499141
 20
9.863935
 30
0.0
 10
1.701164
 20
9.978944
 30
0.0
 10
1.722732
 20
9.991223
 30
0.0
 11
1.657455
 21
5.021960
 31
0.0
 11
1.646465
 21
5.250180
 31
0.0
 11
1.640800
 21
6.020088
 31
0.0
 11
1.639193
 21
7.501740
 31
0.0
 11
1.640996
 21
9.345534
 31
0.0
 11
1.661364
 21
9.952464
 31
0.0
 11
1.722732
 21
9.991223
 31
0.0
  0
LINE
  5
115
100
AcDbEntity
  8
Calque_1
 62
7
100
AcDbLine
 10
1.657465
 20
5.021964
 30
0.0
 11
1.657455
 21
5.021960
 31
0.0
  0
SPLINE
  5
116
100
AcDbEntity
  8
Calque_1
 62
7
100
AcDbSpline
 70
0
 71
3
 72
13
 73
9
 74
7
 40
0.000000
 40
0.000000
 40
0.000000
 40
0.000000
 40
1.642156
 40
2.339355
 40
2.489853
 40
2.523074
 40
2.548949
 40
2.574909
 40
2.574909
 40
2.574909
 40
2.574909
 10
1.760982
 20
7.501901
 30
0.0
 10
1.784920
 20
6.930337
 30
0.0
 10
1.819020
 20
6.116108
 30
0.0
 10
1.697276
 20
5.406171
 30
0.0
 10
1.780755
 20
5.020248
 30
0.0
 10
1.707187
 20
5.003341
 30
0.0
 10
1.677986
 20
5.004951
 30
0.0
 10
1.664313
 20
5.016287
 30
0.0
 10
1.657465
 20
5.021964
 30
0.0
 11
1.760982
 21
7.501901
 31
0.0
 11
1.759627
 21
5.859745
 31
0.0
 11
1.752922
 21
5.162579
 31
0.0
 11
1.736912
 21
5.012935
 31
0.0
 11
1.704752
 21
5.004608
 31
0.0
 11
1.679042
 21
5.007530
 31
0.0
 11
1.657465
 21
5.021964
 31
0.0
  0
LINE
  5
117
100
AcDbEntity
  8
Calque_1
 62
7
100
AcDbLine
 10
13.240470
 20
7.501542
 30
0.0
 11
13.240470
 21
9.981622
 31
0.0
  0
LINE
  5
118
100
AcDbEntity
  8
Calque_1
 62
7
100
AcDbLine
 10
13.240470
 20
9.981622
 30
0.0
 11
13.278720
 21
9.991222
 31
0.0
  0
SPLINE
  5
119
100
AcDbEntity
  8
Calque_1
 62
7
100
AcDbSpline
 70
0
 71
3
 72
10
 73
6
 74
4
 40
0.000000
 40
0.000000
 40
0.000000
 40
0.000000
 40
0.210272
 40
0.969012
 40
2.488109
 40
2.488109
 40
2.488109
 40
2.488109
 10
13.259520
 20
5.013780
 30
0.0
 10
13.255254
 20
5.083751
 30
0.0
 10
13.235594
 20
5.406201
 30
0.0
 10
13.247243
 20
6.236152
 30
0.0
 10
13.243180
 20
6.995278
 30
0.0
 10
13.240470
 20
7.501542
 30
0.0
 11
13.259520
 21
5.013780
 31
0.0
 11
13.247861
 21
5.223728
 31
0.0
 11
13.242049
 21
5.982446
 31
0.0
 11
13.240470
 21
7.501542
 31
0.0
  0
LINE
  5
11a
100
AcDbEntity
  8
Calque_1
 62
7
100
AcDbLine
 10
13.259500
 20
5.013779
 30
0.0
 11
13.259520
 21
5.013780
 31
0.0
  0
SPLINE
  5
11b
100
AcDbEntity
  8
Calque_1
 62
7
100
AcDbSpline
 70
0
 71
3
 72
16
 73
12
 74
10
 40
0.000000
 40
0.000000
 40
0.000000
 40
0.000000
 40
0.072585
 40
0.679856
 40
2.523651
 40
4.005304
 40
4.775233
 40
5.003717
 40
5.030130
 40
5.059277
 40
5.093031
 40
5.093031
 40
5.093031
 40
5.093031
 10
13.278720
 20
9.991222
 30
0.0
 10
13.300286
 20
9.978945
 30
0.0
 10
13.502283
 20
9.863951
 30
0.0
 10
13.168058
 20
8.809321
 30
0.0
 10
13.395758
 20
7.674781
 30
0.0
 10
13.414681
 20
6.218626
 30
0.0
 10
13.280339
 20
5.475498
 30
0.0
 10
13.404291
 20
5.059538
 30
0.0
 10
13.321134
 20
5.005880
 30
0.0
 10
13.290328
 20
5.003898
 30
0.0
 10
13.270266
 20
5.010328
 30
0.0
 10
13.259500
 20
5.013779
 30
0.0
 11
13.278720
 21
9.991222
 31
0.0
 11
13.340090
 21
9.952463
 31
0.0
 11
13.360457
 21
9.345533
 31
0.0
 11
13.362260
 21
7.501739
 31
0.0
 11
13.360650
 21
6.020087
 31
0.0
 11
13.354983
 21
5.250179
 31
0.0
 11
13.344000
 21
5.021959
 31
0.0
 11
13.321279
 21
5.008490
 31
0.0
 11
13.292267
 21
5.005681
 31
0.0
 11
13.259500
 21
5.013779
 31
0.0
  0
LINE
  5
11c
100
AcDbEntity
  8
Calque_1
 62
7
100
AcDbLine
 10
6.503514
 20
5.783949
 30
0.0
 11
6.503514
 21
5.783949
 31
0.0
  0
SPLINE
  5
11d
100
AcDbEntity
  8
Calque_1
 62
7
100
AcDbSpline
 70
0
 71
3
 72
22
 73
18
 74
16
 40
0.000000
 40
0.000000
 40
0.000000
 40
0.000000
 40
0.293845
 40
0.453553
 40
0.509543
 40
0.558390
 40
0.699415
 40
1.060853
 40
1.311416
 40
1.495451
 40
1.573146
 40
1.598816
 40
1.631953
 40
1.664759
 40
1.740885
 40
1.923943
 40
2.174490
 40
2.174490
 40
2.174490
 40
2.174490
 10
6.503514
 20
5.783949
 30
0.0
 10
6.415993
 20
5.833724
 30
0.0
 10
6.280902
 20
5.910554
 30
0.0
 10
6.154815
 20
5.997336
 30
0.0
 10
6.061086
 20
6.054247
 30
0.0
 10
6.127419
 20
6.143306
 30
0.0
 10
6.309551
 20
5.972716
 30
0.0
 10
6.512646
 20
5.899446
 30
0.0
 10
6.752903
 20
5.760633
 30
0.0
 10
6.882977
 20
5.661757
 30
0.0
 10
6.988160
 20
5.631711
 30
0.0
 10
6.998765
 20
5.582910
 30
0.0
 10
6.980987
 20
5.555857
 30
0.0
 10
6.937878
 20
5.526877
 30
0.0
 10
6.849039
 20
5.603661
 30
0.0
 10
6.701674
 20
5.662996
 30
0.0
 10
6.576083
 20
5.739654
 30
0.0
 10
6.503514
 20
5.783949
 30
0.0
 11
6.503514
 21
5.783949
 31
0.0
 11
6.250544
 21
5.933451
 31
0.0
 11
6.116514
 21
6.020300
 31
0.0
 11
6.077217
 21
6.060183
 31
0.0
 11
6.103310
 21
6.101476
 31
0.0
 11
6.234334
 21
6.049314
 31
0.0
 11
6.549404
 21
5.872204
 31
0.0
 11
6.766061
 21
5.746341
 31
0.0
 11
6.924480
 21
5.652680
 31
0.0
 11
6.990363
 21
5.611499
 31
0.0
 11
6.995139
 21
5.586276
 31
0.0
 11
6.979101
 21
5.557280
 31
0.0
 11
6.951014
 21
5.540327
 31
0.0
 11
6.881912
 21
5.572264
 31
0.0
 11
6.721144
 21
5.659807
 31
0.0
 11
6.503514
 21
5.783949
 31
0.0
  0
LINE
  5
11e
100
AcDbEntity
  8
Calque_1
 62
7
100
AcDbLine
 10
8.019424
 20
5.558152
 30
0.0
 11
8.019423
 21
5.558146
 31
0.0
  0
SPLINE
  5
11f
100
AcDbEntity
  8
Calque_1
 62
7
100
AcDbSpline
 70
0
 71
3
 72
22
 73
18
 74
16
 40
0.000000
 40
0.000000
 40
0.000000
 40
0.000000
 40
0.017066
 40
0.033088
 40
0.046070
 40
0.319167
 40
0.802988
 40
1.070432
 40
1.102136
 40
1.132268
 40
1.162363
 40
1.426146
 40
1.883748
 40
2.144868
 40
2.160073
 40
2.177213
 40
2.194490
 40
2.194490
 40
2.194490
 40
2.194490
 10
8.019423
 20
5.558146
 30
0.0
 10
8.016220
 20
5.562852
 30
0.0
 10
8.010010
 20
5.571978
 30
0.0
 10
8.005187
 20
5.587061
 30
0.0
 10
8.019034
 20
5.688889
 30
0.0
 10
8.346810
 20
5.766932
 30
0.0
 10
8.581161
 20
5.893613
 30
0.0
 10
8.828643
 20
6.159459
 30
0.0
 10
8.923399
 20
6.090996
 30
0.0
 10
8.931836
 20
6.058018
 30
0.0
 10
8.872861
 20
5.961489
 30
0.0
 10
8.617453
 20
5.878029
 30
0.0
 10
8.345739
 20
5.720291
 30
0.0
 10
8.146851
 20
5.545628
 30
0.0
 10
8.047928
 20
5.539812
 30
0.0
 10
8.032005
 20
5.546278
 30
0.0
 10
8.023629
 20
5.554183
 30
0.0
 10
8.019424
 20
5.558152
 30
0.0
 11
8.019423
 21
5.558146
 31
0.0
 11
8.010544
 21
5.572721
 31
0.0
 11
8.006201
 21
5.588142
 31
0.0
 11
8.007336
 21
5.601075
 31
0.0
 11
8.237690
 21
5.747769
 31
0.0
 11
8.657866
 21
5.987633
 31
0.0
 11
8.896386
 21
6.108605
 31
0.0
 11
8.920665
 21
6.088218
 31
0.0
 11
8.927712
 21
6.058921
 31
0.0
 11
8.914910
 21
6.031685
 31
0.0
 11
8.689435
 21
5.894782
 31
0.0
 11
8.293021
 21
5.666185
 31
0.0
 11
8.063901
 21
5.540937
 31
0.0
 11
8.048695
 21
5.540923
 31
0.0
 11
8.032711
 21
5.547108
 31
0.0
 11
8.019424
 21
5.558152
 31
0.0
  0
LINE
  5
120
100
AcDbEntity
  8
Calque_1
 62
7
100
AcDbLine
 10
5.419753
 20
5.983052
 30
0.0
 11
5.419748
 21
5.983045
 31
0.0
  0
SPLINE
  5
121
100
AcDbEntity
  8
Calque_1
 62
7
100
AcDbSpline
 70
0
 71
3
 72
28
 73
24
 74
22
 40
0.000000
 40
0.000000
 40
0.000000
 40
0.000000
 40
0.270560
 40
0.534526
 40
0.804433
 40
0.921912
 40
1.038448
 40
1.165119
 40
1.329660
 40
1.476280
 40
1.631721
 40
1.699559
 40
1.758717
 40
1.831959
 40
1.941710
 40
2.036069
 40
2.142048
 40
2.259231
 40
2.371820
 40
2.489951
 40
2.546521
 40
2.599922
 40
2.638983
 40
2.638983
 40
2.638983
 40
2.638983
 10
5.419748
 20
5.983045
 30
0.0
 10
5.340577
 20
6.032388
 30
0.0
 10
5.184166
 20
6.129872
 30
0.0
 10
5.115187
 20
6.415021
 30
0.0
 10
5.198560
 20
6.631215
 30
0.0
 10
5.326709
 20
6.743705
 30
0.0
 10
5.439226
 20
6.791705
 30
0.0
 10
5.575592
 20
6.805659
 30
0.0
 10
5.723027
 20
6.787705
 30
0.0
 10
5.862297
 20
6.707237
 30
0.0
 10
5.932232
 20
6.602092
 30
0.0
 10
5.971013
 20
6.516120
 30
0.0
 10
5.984892
 20
6.450226
 30
0.0
 10
5.985265
 20
6.369396
 30
0.0
 10
5.980268
 20
6.276382
 30
0.0
 10
5.942759
 20
6.178120
 30
0.0
 10
5.876862
 20
6.094177
 30
0.0
 10
5.792420
 20
6.018963
 30
0.0
 10
5.684097
 20
5.972136
 30
0.0
 10
5.587598
 20
5.961776
 30
0.0
 10
5.511756
 20
5.966702
 30
0.0
 10
5.462196
 20
5.971871
 30
0.0
 10
5.432358
 20
5.979731
 30
0.0
 10
5.419753
 20
5.983052
 30
0.0
 11
5.419748
 21
5.983045
 31
0.0
 11
5.210567
 21
6.154643
 31
0.0
 11
5.143594
 21
6.409972
 31
0.0
 11
5.241823
 21
6.661369
 31
0.0
 11
5.330349
 21
6.738599
 31
0.0
 11
5.437320
 21
6.784836
 31
0.0
 11
5.563054
 21
6.800218
 31
0.0
 11
5.725733
 21
6.775533
 31
0.0
 11
5.851877
 21
6.700802
 31
0.0
 11
5.943194
 21
6.575011
 31
0.0
 11
5.969741
 21
6.512583
 31
0.0
 11
5.982125
 21
6.454736
 31
0.0
 11
5.984636
 21
6.381537
 31
0.0
 11
5.973916
 21
6.272310
 31
0.0
 11
5.940317
 21
6.184136
 31
0.0
 11
5.876975
 21
6.099170
 31
0.0
 11
5.787687
 21
6.023278
 31
0.0
 11
5.684474
 21
5.978296
 31
0.0
 11
5.567192
 21
5.964161
 31
0.0
 11
5.510701
 21
5.967151
 31
0.0
 11
5.457731
 21
5.973920
 31
0.0
 11
5.419753
 21
5.983052
 31
0.0
  0
LINE
  5
122
100
AcDbEntity
  8
Calque_1
 62
7
100
AcDbLine
 10
9.259216
 20
5.998758
 30
0.0
 11
9.259200
 21
5.998758
 31
0.0
  0
LINE
  5
123
100
AcDbEntity
  8
Calque_1
 62
7
100
AcDbLine
 10
5.521512
 20
7.500558
 30
0.0
 11
5.521512
 21
8.020225
 31
0.0
  0
LINE
  5
124
100
AcDbEntity
  8
Calque_1
 62
7
100
AcDbLine
 10
5.521512
 20
8.020225
 30
0.0
 11
5.563373
 21
8.015415
 31
0.0
  0
LINE
  5
125
100
AcDbEntity
  8
Calque_1
 62
7
100
AcDbLine
 10
5.563373
 20
8.015415
 30
0.0
 11
5.605234
 21
8.010605
 31
0.0
  0
LINE
  5
126
100
AcDbEntity
  8
Calque_1
 62
7
100
AcDbLine
 10
5.605234
 20
8.010605
 30
0.0
 11
5.605234
 21
7.500576
 31
0.0
  0
LINE
  5
127
100
AcDbEntity
  8
Calque_1
 62
7
100
AcDbLine
 10
5.605234
 20
7.500576
 30
0.0
 11
5.605234
 21
6.990544
 31
0.0
  0
LINE
  5
128
100
AcDbEntity
  8
Calque_1
 62
7
100
AcDbLine
 10
5.605234
 20
6.990544
 30
0.0
 11
5.563373
 21
6.985734
 31
0.0
  0
LINE
  5
129
100
AcDbEntity
  8
Calque_1
 62
7
100
AcDbLine
 10
5.563373
 20
6.985734
 30
0.0
 11
5.521512
 21
6.980924
 31
0.0
  0
LINE
  5
12a
100
AcDbEntity
  8
Calque_1
 62
7
100
AcDbLine
 10
5.521512
 20
6.980924
 30
0.0
 11
5.521512
 21
7.500558
 31
0.0
  0
SPLINE
  5
12b
100
AcDbEntity
  8
Calque_1
 62
7
100
AcDbSpline
 70
0
 71
3
 72
28
 73
24
 74
22
 40
0.000000
 40
0.000000
 40
0.000000
 40
0.000000
 40
0.325228
 40
0.634242
 40
0.958049
 40
1.064856
 40
1.193048
 40
1.300672
 40
1.397154
 40
1.492724
 40
1.587872
 40
1.647985
 40
1.707693
 40
1.789290
 40
1.873713
 40
1.933812
 40
2.002157
 40
2.102015
 40
2.204903
 40
2.304752
 40
2.409175
 40
2.526630
 40
2.633098
 40
2.633098
 40
2.633098
 40
2.633098
 10
9.259200
 20
5.998758
 30
0.0
 10
9.170017
 20
6.070018
 30
0.0
 10
8.996098
 20
6.208986
 30
0.0
 10
9.008034
 20
6.568181
 30
0.0
 10
9.198240
 20
6.771264
 30
0.0
 10
9.384519
 20
6.802494
 30
0.0
 10
9.498743
 20
6.799953
 30
0.0
 10
9.609345
 20
6.778834
 30
0.0
 10
9.694931
 20
6.724473
 30
0.0
 10
9.765422
 20
6.658896
 30
0.0
 10
9.811601
 20
6.588354
 30
0.0
 10
9.841086
 20
6.522597
 30
0.0
 10
9.852782
 20
6.455888
 30
0.0
 10
9.852896
 20
6.380622
 30
0.0
 10
9.853542
 20
6.305068
 30
0.0
 10
9.838741
 20
6.234911
 30
0.0
 10
9.803612
 20
6.166828
 30
0.0
 10
9.750639
 20
6.092812
 30
0.0
 10
9.673007
 20
6.027319
 30
0.0
 10
9.582275
 20
5.976679
 30
0.0
 10
9.474802
 20
5.960621
 30
0.0
 10
9.364253
 20
5.963971
 30
0.0
 10
9.293064
 20
5.987548
 30
0.0
 10
9.259216
 20
5.998758
 30
0.0
 11
9.259200
 21
5.998758
 31
0.0
 11
9.039461
 21
6.238524
 31
0.0
 11
9.044774
 21
6.547492
 31
0.0
 11
9.272596
 21
6.777598
 31
0.0
 11
9.377392
 21
6.798226
 31
0.0
 11
9.505562
 21
6.795888
 31
0.0
 11
9.610372
 21
6.771438
 31
0.0
 11
9.693245
 21
6.722033
 31
0.0
 11
9.762588
 21
6.656266
 31
0.0
 11
9.815314
 21
6.577063
 31
0.0
 11
9.838756
 21
6.521710
 31
0.0
 11
9.850058
 21
6.463081
 31
0.0
 11
9.852989
 21
6.381536
 31
0.0
 11
9.850041
 21
6.297165
 31
0.0
 11
9.836942
 21
6.238511
 31
0.0
 11
9.807308
 21
6.176925
 31
0.0
 11
9.748223
 21
6.096422
 31
0.0
 11
9.670200
 21
6.029354
 31
0.0
 11
9.581739
 21
5.983044
 31
0.0
 11
9.479025
 21
5.964226
 31
0.0
 11
9.361710
 21
5.969941
 31
0.0
 11
9.259216
 21
5.998758
 31
0.0
  0
LINE
  5
12c
100
AcDbEntity
  8
Calque_1
 62
7
100
AcDbLine
 10
9.392391
 20
7.515907
 30
0.0
 11
9.396581
 21
8.010590
 31
0.0
  0
LINE
  5
12d
100
AcDbEntity
  8
Calque_1
 62
7
100
AcDbLine
 10
9.396581
 20
8.010590
 30
0.0
 11
9.438442
 21
8.015400
 31
0.0
  0
LINE
  5
12e
100
AcDbEntity
  8
Calque_1
 62
7
100
AcDbLine
 10
9.438442
 20
8.015400
 30
0.0
 11
9.480303
 21
8.020210
 31
0.0
  0
LINE
  5
12f
100
AcDbEntity
  8
Calque_1
 62
7
100
AcDbLine
 10
9.480303
 20
8.020210
 30
0.0
 11
9.480303
 21
7.501564
 31
0.0
  0
LINE
  5
130
100
AcDbEntity
  8
Calque_1
 62
7
100
AcDbLine
 10
9.480303
 20
7.501564
 30
0.0
 11
9.480303
 21
6.982909
 31
0.0
  0
LINE
  5
131
100
AcDbEntity
  8
Calque_1
 62
7
100
AcDbLine
 10
9.480303
 20
6.982909
 30
0.0
 11
9.441739
 21
6.982909
 31
0.0
  0
SPLINE
  5
132
100
AcDbEntity
  8
Calque_1
 62
7
100
AcDbSpline
 70
0
 71
3
 72
10
 73
6
 74
4
 40
0.000000
 40
0.000000
 40
0.000000
 40
0.000000
 40
0.077504
 40
0.262108
 40
0.513909
 40
0.513909
 40
0.513909
 40
0.513909
 10
9.395531
 20
7.002071
 30
0.0
 10
9.394324
 20
7.027880
 30
0.0
 10
9.390241
 20
7.115162
 30
0.0
 10
9.391430
 20
7.286528
 30
0.0
 10
9.392040
 20
7.431982
 30
0.0
 10
9.392391
 20
7.515907
 30
0.0
 11
9.395531
 21
7.002071
 31
0.0
 11
9.392319
 21
7.079508
 31
0.0
 11
9.391203
 21
7.264109
 31
0.0
 11
9.392391
 21
7.515907
 31
0.0
  0
LINE
  5
133
100
AcDbEntity
  8
Calque_1
 62
7
100
AcDbLine
 10
9.395849
 20
7.002061
 30
0.0
 11
9.395531
 21
7.002071
 31
0.0
  0
SPLINE
  5
134
100
AcDbEntity
  8
Calque_1
 62
7
100
AcDbSpline
 70
0
 71
3
 72
10
 73
6
 74
4
 40
0.000000
 40
0.000000
 40
0.000000
 40
0.000000
 40
0.020589
 40
0.038457
 40
0.051636
 40
0.051636
 40
0.051636
 40
0.051636
 10
9.441739
 20
6.982909
 30
0.0
 10
9.434933
 20
6.983473
 30
0.0
 10
9.422221
 20
6.984528
 30
0.0
 10
9.405137
 20
6.990308
 30
0.0
 10
9.398617
 20
6.998559
 30
0.0
 10
9.395849
 20
7.002061
 30
0.0
 11
9.441739
 21
6.982909
 31
0.0
 11
9.421318
 21
6.985534
 31
0.0
 11
9.404828
 21
6.992415
 31
0.0
 11
9.395849
 21
7.002061
 31
0.0
  0
LINE
  5
135
100
AcDbEntity
  8
Calque_1
 62
7
100
AcDbLine
 10
5.392095
 20
8.229303
 30
0.0
 11
5.392104
 21
8.229331
 31
0.0
  0
SPLINE
  5
136
100
AcDbEntity
  8
Calque_1
 62
7
100
AcDbSpline
 70
0
 71
3
 72
34
 73
30
 74
28
 40
0.000000
 40
0.000000
 40
0.000000
 40
0.000000
 40
0.095755
 40
0.187853
 40
0.282675
 40
0.346303
 40
0.406454
 40
0.489200
 40
0.573705
 40
0.633664
 40
0.702038
 40
0.801896
 40
0.904783
 40
1.004632
 40
1.109005
 40
1.226479
 40
1.332954
 40
1.435922
 40
1.546611
 40
1.647501
 40
1.755857
 40
1.881226
 40
1.991816
 40
2.092823
 40
2.198066
 40
2.295448
 40
2.408646
 40
2.540531
 40
2.653023
 40
2.653023
 40
2.653023
 40
2.653023
 10
5.392104
 20
8.229331
 30
0.0
 10
5.363719
 20
8.244193
 30
0.0
 10
5.308035
 20
8.273349
 30
0.0
 10
5.238929
 20
8.339369
 30
0.0
 10
5.193477
 20
8.409847
 30
0.0
 10
5.161918
 20
8.476018
 30
0.0
 10
5.148941
 20
8.544291
 30
0.0
 10
5.148966
 20
8.620150
 30
0.0
 10
5.148026
 20
8.696057
 30
0.0
 10
5.162707
 20
8.766243
 30
0.0
 10
5.197862
 20
8.834280
 30
0.0
 10
5.250820
 20
8.908301
 30
0.0
 10
5.328475
 20
8.973826
 30
0.0
 10
5.419125
 20
9.024328
 30
0.0
 10
5.526845
 20
9.040925
 30
0.0
 10
5.636343
 20
9.035316
 30
0.0
 10
5.743872
 20
9.008850
 30
0.0
 10
5.832760
 20
8.946761
 30
0.0
 10
5.906198
 20
8.871995
 30
0.0
 10
5.967340
 20
8.782129
 30
0.0
 10
5.986806
 20
8.669895
 30
0.0
 10
5.984710
 20
8.555206
 30
0.0
 10
5.960677
 20
8.443407
 30
0.0
 10
5.900930
 20
8.354260
 30
0.0
 10
5.830159
 20
8.281926
 30
0.0
 10
5.741830
 20
8.220843
 30
0.0
 10
5.627448
 20
8.200460
 30
0.0
 10
5.507255
 20
8.197005
 30
0.0
 10
5.428396
 20
8.219122
 30
0.0
 10
5.392095
 20
8.229303
 30
0.0
 11
5.392104
 21
8.229331
 31
0.0
 11
5.309487
 21
8.277741
 31
0.0
 11
5.242457
 21
8.340899
 31
0.0
 11
5.189920
 21
8.419836
 31
0.0
 11
5.164083
 21
8.477983
 31
0.0
 11
5.151955
 21
8.536898
 31
0.0
 11
5.148792
 21
8.619583
 31
0.0
 11
5.151539
 21
8.704044
 31
0.0
 11
5.164511
 21
8.762583
 31
0.0
 11
5.194159
 21
8.824194
 31
0.0
 11
5.253243
 21
8.904696
 31
0.0
 11
5.331267
 21
8.971764
 31
0.0
 11
5.419727
 21
9.018075
 31
0.0
 11
5.522392
 21
9.036877
 31
0.0
 11
5.639728
 21
9.031192
 31
0.0
 11
5.742250
 21
9.002450
 31
0.0
 11
5.828424
 21
8.946088
 31
0.0
 11
5.906033
 21
8.867165
 31
0.0
 11
5.959447
 21
8.781575
 31
0.0
 11
5.982588
 21
8.675718
 31
0.0
 11
5.980275
 21
8.550371
 31
0.0
 11
5.953216
 21
8.443142
 31
0.0
 11
5.899527
 21
8.357586
 31
0.0
 11
5.825780
 21
8.282503
 31
0.0
 11
5.743807
 21
8.229931
 31
0.0
 11
5.633578
 21
8.204179
 31
0.0
 11
5.501693
 21
8.203947
 31
0.0
 11
5.392095
 21
8.229303
 31
0.0
  0
LINE
  5
137
100
AcDbEntity
  8
Calque_1
 62
7
100
AcDbLine
 10
9.269142
 20
8.224222
 30
0.0
 11
9.269153
 21
8.224201
 31
0.0
  0
SPLINE
  5
138
100
AcDbEntity
  8
Calque_1
 62
7
100
AcDbSpline
 70
0
 71
3
 72
31
 73
27
 74
25
 40
0.000000
 40
0.000000
 40
0.000000
 40
0.000000
 40
0.267681
 40
0.525850
 40
0.789678
 40
0.911973
 40
1.025921
 40
1.144714
 40
1.201285
 40
1.254684
 40
1.293742
 40
1.393596
 40
1.496487
 40
1.596340
 40
1.664683
 40
1.724782
 40
1.809206
 40
1.890803
 40
1.950509
 40
2.010631
 40
2.105777
 40
2.201347
 40
2.297832
 40
2.406517
 40
2.537169
 40
2.643811
 40
2.643811
 40
2.643811
 40
2.643811
 10
9.269153
 20
8.224201
 30
0.0
 10
9.193309
 20
8.276501
 30
0.0
 10
9.044317
 20
8.379244
 30
0.0
 10
8.985604
 20
8.661432
 30
0.0
 10
9.078468
 20
8.870196
 30
0.0
 10
9.206777
 20
8.979630
 30
0.0
 10
9.316276
 20
9.029185
 30
0.0
 10
9.413656
 20
9.039228
 30
0.0
 10
9.489759
 20
9.034538
 30
0.0
 10
9.539140
 20
9.028835
 30
0.0
 10
9.601945
 20
9.014656
 30
0.0
 10
9.672854
 20
8.973427
 30
0.0
 10
9.750671
 20
8.908410
 30
0.0
 10
9.803590
 20
8.834270
 30
0.0
 10
9.838726
 20
8.766211
 30
0.0
 10
9.853526
 20
8.696050
 30
0.0
 10
9.852878
 20
8.620496
 30
0.0
 10
9.852773
 20
8.545233
 30
0.0
 10
9.841105
 20
8.478513
 30
0.0
 10
9.811572
 20
8.412777
 30
0.0
 10
9.765417
 20
8.342202
 30
0.0
 10
9.694920
 20
8.276705
 30
0.0
 10
9.609021
 20
8.221855
 30
0.0
 10
9.497199
 20
8.202068
 30
0.0
 10
9.381070
 20
8.197119
 30
0.0
 10
9.303847
 20
8.215818
 30
0.0
 10
9.269142
 20
8.224222
 30
0.0
 11
9.269153
 21
8.224201
 31
0.0
 11
9.070099
 21
8.403172
 31
0.0
 11
9.013922
 21
8.655154
 31
0.0
 11
9.119139
 21
8.897094
 31
0.0
 11
9.212200
 21
8.976439
 31
0.0
 11
9.316354
 21
9.022659
 31
0.0
 11
9.434284
 21
9.036945
 31
0.0
 11
9.490776
 21
9.033956
 31
0.0
 11
9.543745
 21
9.027192
 31
0.0
 11
9.581724
 21
9.018076
 31
0.0
 11
9.670189
 21
8.971764
 31
0.0
 11
9.748217
 21
8.904696
 31
0.0
 11
9.807292
 21
8.824193
 31
0.0
 11
9.836926
 21
8.762608
 31
0.0
 11
9.850025
 21
8.703954
 31
0.0
 11
9.852973
 21
8.619582
 31
0.0
 11
9.850056
 21
8.538037
 31
0.0
 11
9.838766
 21
8.479408
 31
0.0
 11
9.815298
 21
8.424055
 31
0.0
 11
9.762578
 21
8.344851
 31
0.0
 11
9.693234
 21
8.279085
 31
0.0
 11
9.610357
 21
8.229682
 31
0.0
 11
9.504382
 21
8.205564
 31
0.0
 11
9.373746
 21
8.203473
 31
0.0
 11
9.269142
 21
8.224222
 31
0.0
  0
LINE
  5
139
100
AcDbEntity
  8
Calque_1
 62
7
100
AcDbLine
 10
3.717369
 20
9.617611
 30
0.0
 11
3.717374
 21
9.617609
 31
0.0
  0
SPLINE
  5
13a
100
AcDbEntity
  8
Calque_1
 62
7
100
AcDbSpline
 70
0
 71
3
 72
25
 73
21
 74
19
 40
0.000000
 40
0.000000
 40
0.000000
 40
0.000000
 40
0.988645
 40
1.392705
 40
1.483925
 40
1.509302
 40
1.527365
 40
1.549011
 40
1.724111
 40
2.218900
 40
3.045468
 40
4.044794
 40
4.447372
 40
4.533566
 40
4.558092
 40
4.577102
 40
4.600712
 40
4.772839
 40
5.261497
 40
6.092225
 40
6.092225
 40
6.092225
 40
6.092225
 10
3.717374
 20
9.617609
 30
0.0
 10
3.423961
 20
9.784295
 30
0.0
 10
3.010629
 20
10.019105
 30
0.0
 10
2.623757
 20
10.261804
 30
0.0
 10
2.449289
 20
10.365683
 30
0.0
 10
2.454149
 20
10.413387
 30
0.0
 10
2.467112
 20
10.432360
 30
0.0
 10
2.541516
 20
10.448643
 30
0.0
 10
2.733117
 20
10.271061
 30
0.0
 10
3.179321
 20
10.088303
 30
0.0
 10
3.835228
 20
9.670576
 30
0.0
 10
4.513331
 20
9.300166
 30
0.0
 10
4.891227
 20
9.062529
 30
0.0
 10
5.069681
 20
8.955526
 30
0.0
 10
5.057973
 20
8.909944
 30
0.0
 10
5.041785
 20
8.893082
 30
0.0
 10
4.967582
 20
8.881026
 30
0.0
 10
4.776797
 20
9.047533
 30
0.0
 10
4.334497
 20
9.239023
 30
0.0
 10
3.955806
 20
9.471338
 30
0.0
 10
3.717369
 20
9.617611
 30
0.0
 11
3.717374
 21
9.617609
 31
0.0
 11
2.862452
 21
10.114123
 31
0.0
 11
2.517677
 21
10.324824
 31
0.0
 11
2.453715
 21
10.389863
 31
0.0
 11
2.456830
 21
10.415047
 31
0.0
 11
2.467608
 21
10.429543
 31
0.0
 11
2.488198
 21
10.436219
 31
0.0
 11
2.645508
 21
10.359319
 31
0.0
 11
3.077515
 21
10.118099
 31
0.0
 11
3.794503
 21
9.706831
 31
0.0
 11
4.659053
 21
9.205624
 31
0.0
 11
5.002646
 21
8.995833
 31
0.0
 11
5.061736
 21
8.933082
 31
0.0
 11
5.055391
 21
8.909391
 31
0.0
 11
5.042008
 21
8.895890
 31
0.0
 11
5.019090
 21
8.890216
 31
0.0
 11
4.864238
 21
8.965372
 31
0.0
 11
4.437660
 21
9.203737
 31
0.0
 11
3.717369
 21
9.617611
 31
0.0
  0
LINE
  5
13b
100
AcDbEntity
  8
Calque_1
 62
7
100
AcDbLine
 10
6.083759
 20
8.910117
 30
0.0
 11
6.083774
 21
8.910116
 31
0.0
  0
SPLINE
  5
13c
100
AcDbEntity
  8
Calque_1
 62
7
100
AcDbSpline
 70
0
 71
3
 72
25
 73
21
 74
19
 40
0.000000
 40
0.000000
 40
0.000000
 40
0.000000
 40
0.018586
 40
0.034309
 40
0.050715
 40
0.130111
 40
0.314739
 40
0.564788
 40
0.865362
 40
1.019424
 40
1.071078
 40
1.120189
 40
1.263848
 40
1.628117
 40
1.880307
 40
2.062993
 40
2.136668
 40
2.146225
 40
2.160729
 40
2.177654
 40
2.177654
 40
2.177654
 40
2.177654
 10
6.083774
 20
8.910116
 30
0.0
 10
6.080077
 20
8.915178
 30
0.0
 10
6.073254
 20
8.924522
 30
0.0
 10
6.070881
 20
8.942133
 30
0.0
 10
6.086237
 20
8.977530
 30
0.0
 10
6.180717
 20
9.014481
 30
0.0
 10
6.316044
 20
9.113362
 30
0.0
 10
6.530953
 20
9.231019
 30
0.0
 10
6.740687
 20
9.355009
 30
0.0
 10
6.875788
 20
9.424612
 30
0.0
 10
6.970895
 20
9.469601
 30
0.0
 10
7.007178
 20
9.364958
 30
0.0
 10
6.771684
 20
9.295456
 30
0.0
 10
6.601533
 20
9.153814
 30
0.0
 10
6.360164
 20
9.011996
 30
0.0
 10
6.212146
 20
8.955965
 30
0.0
 10
6.136874
 20
8.877951
 30
0.0
 10
6.105350
 20
8.889539
 30
0.0
 10
6.094698
 20
8.898285
 30
0.0
 10
6.087588
 20
8.905976
 30
0.0
 10
6.083759
 20
8.910117
 30
0.0
 11
6.083774
 21
8.910116
 31
0.0
 11
6.074216
 21
8.926056
 31
0.0
 11
6.072332
 21
8.941666
 31
0.0
 11
6.078124
 21
8.957016
 31
0.0
 11
6.143504
 21
9.002062
 31
0.0
 11
6.301100
 21
9.098243
 31
0.0
 11
6.516791
 21
9.224743
 31
0.0
 11
6.778176
 21
9.373143
 31
0.0
 11
6.915388
 21
9.443199
 31
0.0
 11
6.965892
 21
9.454039
 31
0.0
 11
6.985996
 21
9.409231
 31
0.0
 11
6.873031
 21
9.320480
 31
0.0
 11
6.559615
 21
9.134840
 31
0.0
 11
6.340777
 21
9.009502
 31
0.0
 11
6.181458
 21
8.920105
 31
0.0
 11
6.116149
 21
8.886005
 31
0.0
 11
6.107183
 21
8.889312
 31
0.0
 11
6.095553
 21
8.897978
 31
0.0
 11
6.083759
 21
8.910117
 31
0.0
  0
LINE
  5
13d
100
AcDbEntity
  8
Calque_1
 62
7
100
AcDbLine
 10
8.437070
 20
9.136316
 30
0.0
 11
8.437060
 21
9.136316
 31
0.0
  0
SPLINE
  5
13e
100
AcDbEntity
  8
Calque_1
 62
7
100
AcDbSpline
 70
0
 71
3
 72
22
 73
18
 74
16
 40
0.000000
 40
0.000000
 40
0.000000
 40
0.000000
 40
0.360393
 40
0.502886
 40
0.551566
 40
0.602311
 40
0.753288
 40
1.048898
 40
1.295234
 40
1.478904
 40
1.560198
 40
1.592190
 40
1.625312
 40
1.660246
 40
1.736662
 40
1.920026
 40
2.170826
 40
2.170826
 40
2.170826
 40
2.170826
 10
8.437060
 20
9.136316
 30
0.0
 10
8.348800
 20
9.202976
 30
0.0
 10
8.225645
 20
9.295991
 30
0.0
 10
7.995335
 20
9.365718
 30
0.0
 10
8.030568
 20
9.469318
 30
0.0
 10
8.124348
 20
9.426289
 30
0.0
 10
8.257011
 20
9.357416
 30
0.0
 10
8.463684
 20
9.235870
 30
0.0
 10
8.674981
 20
9.120387
 30
0.0
 10
8.812753
 20
9.022901
 30
0.0
 10
8.910470
 20
8.986204
 30
0.0
 10
8.932775
 20
8.937910
 30
0.0
 10
8.917813
 20
8.904468
 30
0.0
 10
8.870692
 20
8.878729
 30
0.0
 10
8.783942
 20
8.953666
 30
0.0
 10
8.634696
 20
9.015587
 30
0.0
 10
8.509431
 20
9.092111
 30
0.0
 10
8.437070
 20
9.136316
 30
0.0
 11
8.437060
 21
9.136316
 31
0.0
 11
8.127688
 21
9.321174
 31
0.0
 11
8.015979
 21
9.409634
 31
0.0
 11
8.035722
 21
9.454131
 31
0.0
 11
8.085434
 21
9.443938
 31
0.0
 11
8.220039
 21
9.375561
 31
0.0
 11
8.477241
 21
9.229849
 31
0.0
 11
8.690161
 21
9.105967
 31
0.0
 11
8.847927
 21
9.011923
 31
0.0
 11
8.916384
 21
8.968078
 31
0.0
 11
8.927857
 21
8.938214
 31
0.0
 11
8.915237
 21
8.907590
 31
0.0
 11
8.884570
 21
8.890859
 31
0.0
 11
8.815469
 21
8.923483
 31
0.0
 11
8.654702
 21
9.011666
 31
0.0
 11
8.437070
 21
9.136316
 31
0.0
  0
LINE
  5
13f
100
AcDbEntity
  8
Calque_1
 62
7
100
AcDbLine
 10
9.946835
 20
8.896142
 30
0.0
 11
9.946857
 21
8.896152
 31
0.0
  0
SPLINE
  5
140
100
AcDbEntity
  8
Calque_1
 62
7
100
AcDbSpline
 70
0
 71
3
 72
28
 73
24
 74
22
 40
0.000000
 40
0.000000
 40
0.000000
 40
0.000000
 40
0.010955
 40
0.027026
 40
0.045300
 40
0.161905
 40
0.597662
 40
1.531623
 40
2.352789
 40
2.849919
 40
3.027245
 40
3.048222
 40
3.067374
 40
3.090895
 40
3.177949
 40
3.581314
 40
4.577598
 40
5.320205
 40
5.856443
 40
6.070301
 40
6.086358
 40
6.100876
 40
6.111305
 40
6.111305
 40
6.111305
 40
6.111305
 10
9.946857
 20
8.896152
 30
0.0
 10
9.944985
 20
8.899323
 30
0.0
 10
9.940367
 20
8.907145
 30
0.0
 10
9.937902
 20
8.922136
 30
0.0
 10
9.931340
 20
8.973924
 30
0.0
 10
10.158037
 20
9.061413
 30
0.0
 10
10.506515
 20
9.333084
 30
0.0
 10
11.187845
 20
9.675778
 30
0.0
 10
11.821342
 20
10.089908
 30
0.0
 10
12.265478
 20
10.265710
 30
0.0
 10
12.460781
 20
10.451181
 30
0.0
 10
12.534189
 20
10.431398
 30
0.0
 10
12.548173
 20
10.414444
 30
0.0
 10
12.560701
 20
10.369528
 30
0.0
 10
12.378385
 20
10.262860
 30
0.0
 10
12.005621
 20
10.025110
 30
0.0
 10
11.350291
 20
9.668187
 30
0.0
 10
10.706971
 20
9.263775
 30
0.0
 10
10.261101
 20
9.077962
 30
0.0
 10
10.052094
 20
8.880053
 30
0.0
 10
9.970472
 20
8.887006
 30
0.0
 10
9.956877
 20
8.889816
 30
0.0
 10
9.949795
 20
8.894277
 30
0.0
 10
9.946835
 20
8.896142
 30
0.0
 11
9.946857
 21
8.896152
 31
0.0
 11
9.941758
 21
8.905848
 31
0.0
 11
9.938104
 21
8.921499
 31
0.0
 11
9.936706
 21
8.939719
 31
0.0
 11
10.027239
 21
9.013206
 31
0.0
 11
10.400317
 21
9.238367
 31
0.0
 11
11.208156
 21
9.707066
 31
0.0
 11
11.920508
 21
10.115562
 31
0.0
 11
12.354539
 21
10.357955
 31
0.0
 11
12.513687
 21
10.436163
 31
0.0
 11
12.533513
 21
10.429308
 31
0.0
 11
12.546154
 21
10.414922
 31
0.0
 11
12.552307
 21
10.392219
 31
0.0
 11
12.492201
 21
10.329246
 31
0.0
 11
12.147871
 21
10.119150
 31
0.0
 11
11.285901
 21
9.619561
 31
0.0
 11
10.641745
 21
9.250064
 31
0.0
 11
10.174735
 21
8.986526
 31
0.0
 11
9.985975
 21
8.886001
 31
0.0
 11
9.969978
 21
8.887388
 31
0.0
 11
9.955924
 21
8.891028
 31
0.0
 11
9.946835
 21
8.896142
 31
0.0
  0
LINE
  5
141
100
AcDbEntity
  8
Calque_1
 62
7
100
AcDbLine
 10
7.378839
 20
9.325609
 30
0.0
 11
7.378839
 21
9.325618
 31
0.0
  0
SPLINE
  5
142
100
AcDbEntity
  8
Calque_1
 62
7
100
AcDbSpline
 70
0
 71
3
 72
22
 73
18
 74
16
 40
0.000000
 40
0.000000
 40
0.000000
 40
0.000000
 40
0.196628
 40
0.387996
 40
0.580485
 40
0.826924
 40
1.063900
 40
1.306526
 40
1.592996
 40
1.862749
 40
2.145003
 40
2.261334
 40
2.365274
 40
2.482436
 40
2.541351
 40
2.593423
 40
2.627710
 40
2.627710
 40
2.627710
 40
2.627710
 10
7.378839
 20
9.325618
 30
0.0
 10
7.318815
 20
9.354537
 30
0.0
 10
7.200372
 20
9.411601
 30
0.0
 10
7.090877
 20
9.582426
 30
0.0
 10
7.060664
 20
9.796694
 30
0.0
 10
7.153444
 20
10.017459
 30
0.0
 10
7.363118
 20
10.162795
 30
0.0
 10
7.633648
 20
10.167672
 30
0.0
 10
7.868629
 20
10.002430
 30
0.0
 10
7.958339
 20
9.714841
 30
0.0
 10
7.862921
 20
9.493573
 30
0.0
 10
7.740051
 20
9.377823
 30
0.0
 10
7.636840
 20
9.328010
 30
0.0
 10
7.542897
 20
9.317274
 30
0.0
 10
7.466993
 20
9.316912
 30
0.0
 10
7.418411
 20
9.318192
 30
0.0
 10
7.390085
 20
9.323501
 30
0.0
 10
7.378839
 20
9.325609
 30
0.0
 11
7.378839
 21
9.325618
 31
0.0
 11
7.210389
 21
9.427043
 31
0.0
 11
7.104511
 21
9.586454
 31
0.0
 11
7.078884
 21
9.777229
 31
0.0
 11
7.173779
 21
10.004664
 31
0.0
 11
7.369021
 21
10.138971
 31
0.0
 11
7.611602
 21
10.143670
 31
0.0
 11
7.845933
 21
9.978886
 31
0.0
 11
7.924078
 21
9.720699
 31
0.0
 11
7.818898
 21
9.458775
 31
0.0
 11
7.733251
 21
9.380050
 31
0.0
 11
7.639437
 21
9.335302
 31
0.0
 11
7.523574
 21
9.317906
 31
0.0
 11
7.464662
 21
9.317226
 31
0.0
 11
7.412665
 21
9.320002
 31
0.0
 11
7.378839
 21
9.325609
 31
0.0
  0
LINE
  5
143
100
AcDbEntity
  8
Calque_1
 62
7
100
AcDbLine
 10
1.564466
 20
10.181354
 30
0.0
 11
1.564712
 21
10.181354
 31
0.0
  0
SPLINE
  5
144
100
AcDbEntity
  8
Calque_1
 62
7
100
AcDbSpline
 70
0
 71
3
 72
22
 73
18
 74
16
 40
0.000000
 40
0.000000
 40
0.000000
 40
0.000000
 40
0.126579
 40
0.263035
 40
0.392635
 40
0.747345
 40
1.093463
 40
1.447556
 40
1.940026
 40
2.409384
 40
2.904299
 40
3.117276
 40
3.326799
 40
3.545038
 40
3.770845
 40
3.988417
 40
4.214029
 40
4.214029
 40
4.214029
 40
4.214029
 10
1.564712
 20
10.181354
 30
0.0
 10
1.523978
 20
10.192803
 30
0.0
 10
1.439330
 20
10.216596
 30
0.0
 10
1.324112
 20
10.280987
 30
0.0
 10
1.160407
 20
10.408797
 30
0.0
 10
1.017859
 20
10.664430
 30
0.0
 10
1.017539
 20
11.030186
 30
0.0
 10
1.221111
 20
11.393178
 30
0.0
 10
1.662735
 20
11.588139
 30
0.0
 10
2.164454
 20
11.426327
 30
0.0
 10
2.383373
 20
11.053786
 30
0.0
 10
2.386913
 20
10.743643
 30
0.0
 10
2.319013
 20
10.536876
 30
0.0
 10
2.186292
 20
10.359743
 30
0.0
 10
2.006556
 20
10.226897
 30
0.0
 10
1.788141
 20
10.156855
 30
0.0
 10
1.639921
 20
10.173089
 30
0.0
 10
1.564466
 20
10.181354
 30
0.0
 11
1.564712
 21
10.181354
 31
0.0
 11
1.444236
 21
10.220182
 31
0.0
 11
1.324181
 21
10.285044
 31
0.0
 11
1.222964
 21
10.365985
 31
0.0
 11
1.047147
 21
10.674055
 31
0.0
 11
1.046796
 21
11.020173
 31
0.0
 11
1.221918
 21
11.327929
 31
0.0
 11
1.672713
 21
11.526197
 31
0.0
 11
2.119452
 21
11.382247
 31
0.0
 11
2.372793
 21
10.957089
 31
0.0
 11
2.375135
 21
10.744125
 31
0.0
 11
2.309972
 21
10.544992
 31
0.0
 11
2.180473
 21
10.369328
 31
0.0
 11
1.998015
 21
10.236294
 31
0.0
 11
1.789916
 21
10.172792
 31
0.0
 11
1.564466
 21
10.181354
 31
0.0
  0
LINE
  5
145
100
AcDbEntity
  8
Calque_1
 62
7
100
AcDbLine
 10
13.140896
 20
10.186115
 30
0.0
 11
13.140896
 21
10.186115
 31
0.0
  0
SPLINE
  5
146
100
AcDbEntity
  8
Calque_1
 62
7
100
AcDbSpline
 70
0
 71
3
 72
22
 73
18
 74
16
 40
0.000000
 40
0.000000
 40
0.000000
 40
0.000000
 40
0.123797
 40
0.244104
 40
0.373562
 40
0.664752
 40
0.944641
 40
1.238954
 40
1.654717
 40
2.060091
 40
2.480356
 40
2.687932
 40
2.892500
 40
3.111569
 40
3.480182
 40
3.846542
 40
4.221584
 40
4.221584
 40
4.221584
 40
4.221584
 10
13.140896
 20
10.186115
 30
0.0
 10
13.101133
 20
10.197645
 30
0.0
 10
13.022728
 20
10.220381
 30
0.0
 10
12.914369
 20
10.284237
 30
0.0
 10
12.777482
 20
10.402075
 30
0.0
 10
12.641544
 20
10.601399
 30
0.0
 10
12.599999
 20
10.896363
 30
0.0
 10
12.694437
 20
11.222405
 30
0.0
 10
12.980566
 20
11.498875
 30
0.0
 10
13.416099
 20
11.560415
 30
0.0
 10
13.744472
 20
11.393370
 30
0.0
 10
13.912104
 20
11.166881
 30
0.0
 10
13.976835
 20
10.963126
 30
0.0
 10
13.981622
 20
10.695125
 30
0.0
 10
13.847260
 20
10.390103
 30
0.0
 10
13.521505
 20
10.162097
 30
0.0
 10
13.268752
 20
10.178047
 30
0.0
 10
13.140896
 20
10.186115
 30
0.0
 11
13.140896
 21
10.186115
 31
0.0
 11
13.023561
 21
10.225590
 31
0.0
 11
12.919169
 21
10.285390
 31
0.0
 11
12.820758
 21
10.369502
 31
0.0
 11
12.661035
 21
10.612976
 31
0.0
 11
12.620255
 21
10.889878
 31
0.0
 11
12.702506
 21
11.172465
 31
0.0
 11
13.003088
 21
11.459709
 31
0.0
 11
13.404302
 21
11.517632
 31
0.0
 11
13.779313
 21
11.327923
 31
0.0
 11
13.902378
 21
11.160761
 31
0.0
 11
13.965815
 21
10.966278
 31
0.0
 11
13.968724
 21
10.747228
 31
0.0
 11
13.818725
 21
10.410515
 31
0.0
 11
13.515464
 21
10.204961
 31
0.0
 11
13.140896
 21
10.186115
 31
0.0
  0
LINE
  5
147
100
AcDbEntity
  8
Calque_1
 62
7
100
AcDbLine
 10
7.455544
 20
10.346718
 30
0.0
 11
7.455523
 21
10.346718
 31
0.0
  0
SPLINE
  5
148
100
AcDbEntity
  8
Calque_1
 62
7
100
AcDbSpline
 70
0
 71
3
 72
28
 73
24
 74
22
 40
0.000000
 40
0.000000
 40
0.000000
 40
0.000000
 40
0.175993
 40
0.670473
 40
1.494398
 40
2.486451
 40
2.890547
 40
2.977807
 40
2.997688
 40
3.014713
 40
3.034607
 40
3.121863
 40
3.525962
 40
4.518018
 40
5.341942
 40
5.836421
 40
6.012418
 40
6.031549
 40
6.050962
 40
6.068415
 40
6.085870
 40
6.105285
 40
6.124411
 40
6.124411
 40
6.124411
 40
6.124411
 10
7.455523
 20
10.346718
 30
0.0
 10
7.452394
 20
10.405293
 30
0.0
 10
7.440474
 20
10.628444
 30
0.0
 10
7.444086
 20
11.127911
 30
0.0
 10
7.447507
 20
11.889792
 30
0.0
 10
7.429030
 20
12.660743
 30
0.0
 10
7.465996
 20
13.108585
 30
0.0
 10
7.451037
 20
13.313253
 30
0.0
 10
7.491142
 20
13.331623
 30
0.0
 10
7.510335
 20
13.331620
 30
0.0
 10
7.550452
 20
13.313267
 30
0.0
 10
7.535482
 20
13.108589
 30
0.0
 10
7.573594
 20
12.660391
 30
0.0
 10
7.544290
 20
11.892977
 30
0.0
 10
7.581252
 20
11.120063
 30
0.0
 10
7.523492
 20
10.640804
 30
0.0
 10
7.578704
 20
10.389093
 30
0.0
 10
7.534659
 20
10.330898
 30
0.0
 10
7.518782
 20
10.320644
 30
0.0
 10
7.500745
 20
10.315459
 30
0.0
 10
7.482763
 20
10.320657
 30
0.0
 10
7.466703
 20
10.330854
 30
0.0
 10
7.459245
 20
10.341456
 30
0.0
 10
7.455544
 20
10.346718
 30
0.0
 11
7.455523
 21
10.346718
 31
0.0
 11
7.447070
 21
10.522508
 31
0.0
 11
7.443116
 21
11.016973
 31
0.0
 11
7.443593
 21
11.840897
 31
0.0
 11
7.447570
 21
12.832943
 31
0.0
 11
7.455885
 21
13.236953
 31
0.0
 11
7.474099
 21
13.322290
 31
0.0
 11
7.492224
 21
13.330460
 31
0.0
 11
7.509249
 21
13.330460
 31
0.0
 11
7.527388
 21
13.322290
 31
0.0
 11
7.545611
 21
13.236958
 31
0.0
 11
7.553939
 21
12.832945
 31
0.0
 11
7.557894
 21
11.840897
 31
0.0
 11
7.558383
 21
11.016974
 31
0.0
 11
7.554475
 21
10.522509
 31
0.0
 11
7.545964
 21
10.346718
 31
0.0
 11
7.533974
 21
10.331811
 31
0.0
 11
7.517730
 21
10.321181
 31
0.0
 11
7.500754
 21
10.317127
 31
0.0
 11
7.483777
 21
10.321184
 31
0.0
 11
7.467533
 21
10.331816
 31
0.0
 11
7.455544
 21
10.346718
 31
0.0
  0
LINE
  5
149
100
AcDbEntity
  8
Calque_1
 62
7
100
AcDbLine
 10
2.449124
 20
11.264113
 30
0.0
 11
2.449147
 21
11.264111
 31
0.0
  0
SPLINE
  5
14a
100
AcDbEntity
  8
Calque_1
 62
7
100
AcDbSpline
 70
0
 71
3
 72
25
 73
21
 74
19
 40
0.000000
 40
0.000000
 40
0.000000
 40
0.000000
 40
0.033579
 40
0.065910
 40
0.102587
 40
1.399019
 40
3.743753
 40
5.011454
 40
5.044124
 40
5.079319
 40
5.117340
 40
5.324103
 40
6.066470
 40
7.583288
 40
8.818058
 40
9.705887
 40
10.054623
 40
10.072994
 40
10.091889
 40
10.108171
 40
10.108171
 40
10.108171
 40
10.108171
 10
2.449147
 20
11.264111
 30
0.0
 10
2.442318
 20
11.273396
 30
0.0
 10
2.428915
 20
11.291619
 30
0.0
 10
2.433115
 20
11.328983
 30
0.0
 10
2.747188
 20
11.669480
 30
0.0
 10
3.931443
 20
12.149625
 30
0.0
 10
5.334530
 20
12.747330
 30
0.0
 10
6.297549
 20
13.909048
 30
0.0
 10
6.745833
 20
13.795383
 30
0.0
 10
6.766390
 20
13.763484
 30
0.0
 10
6.775299
 20
13.664862
 30
0.0
 10
6.367896
 20
13.548534
 30
0.0
 10
5.800434
 20
13.068739
 30
0.0
 10
4.706958
 20
12.538413
 30
0.0
 10
3.687209
 20
11.871497
 30
0.0
 10
2.946064
 20
11.575324
 30
0.0
 10
2.609008
 20
11.234727
 30
0.0
 10
2.480105
 20
11.247959
 30
0.0
 10
2.462906
 20
11.253764
 30
0.0
 10
2.453485
 20
11.260839
 30
0.0
 10
2.449124
 20
11.264113
 30
0.0
 11
2.449147
 21
11.264111
 31
0.0
 11
2.432840
 21
11.293465
 31
0.0
 11
2.435801
 21
11.325660
 31
0.0
 11
2.457517
 21
11.355217
 31
0.0
 11
3.577197
 21
12.008711
 31
0.0
 11
5.609453
 21
13.178203
 31
0.0
 11
6.712148
 21
13.803608
 31
0.0
 11
6.742761
 21
13.792198
 31
0.0
 11
6.763095
 21
13.763473
 31
0.0
 11
6.767305
 21
13.725685
 31
0.0
 11
6.597167
 21
13.608195
 31
0.0
 11
5.958441
 21
13.229859
 31
0.0
 11
4.646085
 21
12.469294
 31
0.0
 11
3.575847
 21
11.853464
 31
0.0
 11
2.804352
 21
11.414104
 31
0.0
 11
2.498625
 21
11.246333
 31
0.0
 11
2.480396
 21
11.248613
 31
0.0
 11
2.462608
 21
11.254989
 31
0.0
 11
2.449124
 21
11.264113
 31
0.0
  0
LINE
  5
14b
100
AcDbEntity
  8
Calque_1
 62
7
100
AcDbLine
 10
10.355387
 20
12.469243
 30
0.0
 11
10.355389
 21
12.469242
 31
0.0
  0
SPLINE
  5
14c
100
AcDbEntity
  8
Calque_1
 62
7
100
AcDbSpline
 70
0
 71
3
 72
22
 73
18
 74
16
 40
0.000000
 40
0.000000
 40
0.000000
 40
0.000000
 40
1.512929
 40
2.257427
 40
2.466076
 40
2.504227
 40
2.539460
 40
2.572702
 40
3.858308
 40
6.219553
 40
7.506566
 40
7.543740
 40
7.580758
 40
7.623903
 40
7.906110
 40
8.724383
 40
10.098225
 40
10.098225
 40
10.098225
 40
10.098225
 10
10.355389
 20
12.469242
 30
0.0
 10
9.894379
 20
12.710727
 30
0.0
 10
9.206509
 20
13.071044
 30
0.0
 10
8.635449
 20
13.548287
 30
0.0
 10
8.226277
 20
13.664371
 30
0.0
 10
8.234996
 20
13.763862
 30
0.0
 10
8.256248
 20
13.795708
 30
0.0
 10
8.712751
 20
13.902425
 30
0.0
 10
9.706089
 20
12.762767
 30
0.0
 10
10.966883
 20
12.041903
 30
0.0
 10
12.419566
 20
11.751627
 30
0.0
 10
12.574388
 20
11.296407
 30
0.0
 10
12.548991
 20
11.260235
 30
0.0
 10
12.428055
 20
11.223388
 30
0.0
 10
12.110432
 20
11.541217
 30
0.0
 10
11.379353
 20
11.829254
 30
0.0
 10
10.749886
 20
12.222677
 30
0.0
 10
10.355387
 20
12.469243
 30
0.0
 11
10.355389
 21
12.469242
 31
0.0
 11
9.046527
 21
13.228079
 31
0.0
 11
8.405994
 21
13.607546
 31
0.0
 11
8.234165
 21
13.725906
 31
0.0
 11
8.238426
 21
13.763818
 31
0.0
 11
8.259143
 21
13.792317
 31
0.0
 11
8.290484
 21
13.803399
 31
0.0
 11
9.409232
 21
13.170007
 31
0.0
 11
11.453254
 21
11.987868
 31
0.0
 11
12.561429
 21
11.333384
 31
0.0
 11
12.568256
 21
11.296842
 31
0.0
 11
12.548312
 21
11.265656
 31
0.0
 11
12.508159
 21
11.249869
 31
0.0
 11
12.258032
 21
11.380549
 31
0.0
 11
11.546046
 21
11.783842
 31
0.0
 11
10.355387
 21
12.469243
 31
0.0
  0
LINE
  5
14d
100
AcDbEntity
  8
Calque_1
 62
7
100
AcDbLine
 10
7.349175
 20
13.530967
 30
0.0
 11
7.349175
 21
13.530967
 31
0.0
  0
SPLINE
  5
14e
100
AcDbEntity
  8
Calque_1
 62
7
100
AcDbSpline
 70
0
 71
3
 72
28
 73
24
 74
22
 40
0.000000
 40
0.000000
 40
0.000000
 40
0.000000
 40
0.161581
 40
0.336185
 40
0.504820
 40
0.706977
 40
0.915930
 40
1.117938
 40
1.328471
 40
1.542639
 40
1.753922
 40
1.831377
 40
1.907111
 40
2.012192
 40
2.119831
 40
2.195225
 40
2.279257
 40
2.569480
 40
2.857155
 40
3.140716
 40
3.513313
 40
3.868194
 40
4.242883
 40
4.242883
 40
4.242883
 40
4.242883
 10
7.349175
 20
13.530967
 30
0.0
 10
7.297435
 20
13.546967
 30
0.0
 10
7.189785
 20
13.580256
 30
0.0
 10
7.050709
 20
13.679046
 30
0.0
 10
6.924232
 20
13.812090
 30
0.0
 10
6.844637
 20
13.992433
 30
0.0
 10
6.813571
 20
14.196258
 30
0.0
 10
6.838677
 20
14.405639
 30
0.0
 10
6.937176
 20
14.594413
 30
0.0
 10
7.087193
 20
14.748393
 30
0.0
 10
7.237849
 20
14.828182
 30
0.0
 10
7.354887
 20
14.862219
 30
0.0
 10
7.441036
 20
14.870367
 30
0.0
 10
7.537133
 20
14.866308
 30
0.0
 10
7.633250
 20
14.863336
 30
0.0
 10
7.721069
 20
14.845274
 30
0.0
 10
7.858205
 20
14.783381
 30
0.0
 10
8.037317
 20
14.644054
 30
0.0
 10
8.175571
 20
14.382345
 30
0.0
 10
8.195466
 20
14.058489
 30
0.0
 10
8.046262
 20
13.738796
 30
0.0
 10
7.726186
 20
13.511707
 30
0.0
 10
7.477100
 20
13.524432
 30
0.0
 10
7.349175
 20
13.530967
 30
0.0
 11
7.349175
 21
13.530967
 31
0.0
 11
7.197427
 21
13.586474
 31
0.0
 11
7.052937
 21
13.684499
 31
0.0
 11
6.939261
 21
13.809062
 31
0.0
 11
6.854181
 21
13.992443
 31
0.0
 11
6.822894
 21
14.199041
 31
0.0
 11
6.849883
 21
14.399237
 31
0.0
 11
6.944820
 21
14.587150
 31
0.0
 11
7.094739
 21
14.740094
 31
0.0
 11
7.281271
 21
14.839324
 31
0.0
 11
7.355927
 21
14.859958
 31
0.0
 11
7.431233
 21
14.867994
 31
0.0
 11
7.536305
 21
14.866539
 31
0.0
 11
7.643705
 21
14.859375
 31
0.0
 11
7.717379
 21
14.843362
 31
0.0
 11
7.794671
 21
14.810388
 31
0.0
 11
8.021959
 21
14.629918
 31
0.0
 11
8.156035
 21
14.375397
 31
0.0
 11
8.172922
 21
14.092340
 31
0.0
 11
8.016390
 21
13.754217
 31
0.0
 11
7.723133
 21
13.554366
 31
0.0
 11
7.349175
 21
13.530967
 31
0.0
  0
ENDSEC
  0
SECTION
  2
OBJECTS
  0
DICTIONARY
  5
C
330
0
100
AcDbDictionary
  3
ACAD_GROUP
350
D
  3
ACAD_MLINESTYLE
350
17
  0
DICTIONARY
  5
D
330
C
100
AcDbDictionary
  0
DICTIONARY
  5
1A
330
C
100
AcDbDictionary
  0
DICTIONARY
  5
17
330
C
100
AcDbDictionary
  3
STANDARD
350
18
  0
DICTIONARY
  5
19
330
C
100
AcDbDictionary
  0
ENDSEC
  0
EOF
